<svg xmlns="http://www.w3.org/2000/svg" width="55" height="55" viewBox="0 0 55 55"><defs><style>.a{fill:#ff4d2c;}</style></defs><g transform="translate(-9.995 -9.9)"><g transform="translate(9.995 9.9)"><path class="a" d="M34.858-502.026a27.473,27.473,0,0,0-16.835,7.964,27.551,27.551,0,0,0-7.891,16.078,41.941,41.941,0,0,0,0,6.78,27.613,27.613,0,0,0,7.89,16.079A27.561,27.561,0,0,0,34.1-447.237a41.968,41.968,0,0,0,6.781,0,28.134,28.134,0,0,0,13.886-5.908A27.86,27.86,0,0,0,64.858-471.2a41.941,41.941,0,0,0,0-6.78,27.551,27.551,0,0,0-7.89-16.078,27.422,27.422,0,0,0-15.6-7.813A39.833,39.833,0,0,0,34.858-502.026Zm5.274,12.957,2.562,7.587,7.707.021,7.707.032-6.373,4.466c-3.509,2.454-6.383,4.52-6.383,4.585s1.13,3.358,2.519,7.318,2.5,7.21,2.487,7.232-10.893-7.889-12.5-9.094l-.334-.247-6.394,4.854c-3.509,2.658-6.4,4.81-6.415,4.756s1.109-3.4,2.5-7.447,2.487-7.394,2.433-7.426-2.939-2.077-6.415-4.531l-6.319-4.466,7.718-.054,7.718-.054,2.551-7.555c1.4-4.165,2.573-7.565,2.605-7.565S38.723-493.245,40.132-489.069Z" transform="translate(-9.995 502.1)"/></g></g></svg>