<svg xmlns="http://www.w3.org/2000/svg" width="163.049" height="83" viewBox="0 0 163.049 83">
  <g id="logoo" transform="translate(-39.951 -3)">
    <text id="IT" transform="translate(170 52)" fill="#f0492a" font-size="41" font-family="BalooBhaina2-Regular, 'Baloo Bhaina 2'"><tspan x="0" y="0">IT</tspan></text>
    <text id="M_VE" data-name="M   VE" transform="translate(73 51)" fill="#7b9301" font-size="39" font-family="BalooBhaina2-Regular, 'Baloo Bhaina 2'"><tspan x="0" y="0" xml:space="preserve">M   VE</tspan></text>
    <g id="XMLID_7_" transform="translate(104 0.5)">
      <path id="XMLID_227_" d="M16.053,47.961a11.35,11.35,0,0,0,4.724-9.328c0-6.139-4.66-11.133-10.388-11.133S0,32.494,0,38.633,4.66,49.767,10.388,49.767H23.865V47.961ZM10.388,29.305c4.8,0,8.7,4.184,8.7,9.328s-3.9,9.328-8.7,9.328-8.7-4.185-8.7-9.328S5.589,29.305,10.388,29.305Z" fill="#7b9301"/>
      <path id="XMLID_230_" d="M142.708,82.916A2.708,2.708,0,1,0,140,80.208,2.711,2.711,0,0,0,142.708,82.916Zm0-3.611a.9.9,0,1,1-.9.9A.9.9,0,0,1,142.708,79.305Z" transform="translate(-132.29 -46.991)" fill="#7b9301"/>
      <path id="XMLID_233_" d="M142.708,257.5a2.708,2.708,0,1,0,2.708,2.708A2.711,2.711,0,0,0,142.708,257.5Zm0,3.611a.9.9,0,1,1,.9-.9A.9.9,0,0,1,142.708,261.111Z" transform="translate(-132.29 -216.159)" fill="#7b9301"/>
      <path id="XMLID_237_" d="M52.708,172.916A2.708,2.708,0,1,0,50,170.208,2.711,2.711,0,0,0,52.708,172.916Zm0-3.611a.9.9,0,1,1-.9.9A.9.9,0,0,1,52.708,169.305Z" transform="translate(-46.991 -131.575)" fill="#7b9301"/>
      <path id="XMLID_240_" d="M232.708,172.916A2.708,2.708,0,1,0,230,170.208,2.711,2.711,0,0,0,232.708,172.916Zm0-3.611a.9.9,0,1,1-.9.9A.9.9,0,0,1,232.708,169.305Z" transform="translate(-217.334 -131.575)" fill="#7b9301"/>
    </g>
    <g id="video-camera" transform="translate(14.604 22.517)">
      <g id="Group_21" data-name="Group 21" transform="translate(25.347)">
        <g id="Group_20" data-name="Group 20" transform="translate(0)">
          <path id="Path_36" data-name="Path 36" d="M54.833,11.2a.8.8,0,0,0-.73-.015L49.322,13.55v-2.03a.712.712,0,0,0-.739-.681h-1.2A5.923,5.923,0,0,0,49.84,6.1,6.388,6.388,0,0,0,43.211,0a6.553,6.553,0,0,0-6.444,4.67A5.169,5.169,0,0,0,32.918,3a4.817,4.817,0,0,0-5,4.6,4.409,4.409,0,0,0,1.453,3.239H28.7a.712.712,0,0,0-.739.681V14.61H26.086a.712.712,0,0,0-.739.681v2.676a.712.712,0,0,0,.739.681h1.872v3.089a.712.712,0,0,0,.739.681h8.723l-4.008,7.076a.655.655,0,0,0,.314.918.788.788,0,0,0,.341.077.75.75,0,0,0,.656-.366l3.916-6.913,3.916,6.913a.75.75,0,0,0,.656.366.788.788,0,0,0,.341-.077.655.655,0,0,0,.314-.918l-4.008-7.076h8.723a.712.712,0,0,0,.739-.681v-2.03L54.1,22.075a.8.8,0,0,0,.73-.015.671.671,0,0,0,.36-.584V11.781A.671.671,0,0,0,54.833,11.2ZM27.958,17.286H26.826V15.971h1.132ZM43.211,1.361a4.963,4.963,0,0,1,5.15,4.74,5.167,5.167,0,0,1-10.3,0A4.963,4.963,0,0,1,43.211,1.361ZM37.565,9.292a6.338,6.338,0,0,0,1.478,1.548h-2.58A4.6,4.6,0,0,0,37.565,9.292ZM32.918,4.362A3.392,3.392,0,0,1,36.438,7.6a3.532,3.532,0,0,1-7.039,0A3.392,3.392,0,0,1,32.918,4.362ZM47.843,14.689v6.366H29.437V12.2H47.843Zm5.871,5.647-4.392-2.176V15.1l4.392-2.176Z" transform="translate(-25.347)" fill="#ff4d2c"/>
        </g>
      </g>
      <g id="Group_23" data-name="Group 23" transform="translate(30.83 5.616)">
        <g id="Group_22" data-name="Group 22">
          <path id="Path_37" data-name="Path 37" d="M109.524,92.931a1.87,1.87,0,1,0,1.87,1.87A1.873,1.873,0,0,0,109.524,92.931Zm0,2.633a.762.762,0,1,1,.762-.762A.763.763,0,0,1,109.524,95.564Z" transform="translate(-107.654 -92.931)" fill="#ff4d2c"/>
        </g>
      </g>
      <g id="Group_25" data-name="Group 25" transform="translate(40.661 2.834)">
        <g id="Group_24" data-name="Group 24">
          <path id="Path_38" data-name="Path 38" d="M254.3,52.6a2.686,2.686,0,1,0,2.686,2.686A2.689,2.689,0,0,0,254.3,52.6Zm0,4.141a1.455,1.455,0,1,1,1.455-1.455A1.456,1.456,0,0,1,254.3,56.736Z" transform="translate(-251.609 -52.595)" fill="#ff4d2c"/>
        </g>
      </g>
      <g id="Group_27" data-name="Group 27" transform="translate(32.605 14.438)">
        <g id="Group_26" data-name="Group 26">
          <path id="Path_39" data-name="Path 39" d="M136.756,238.137h-6.695a.585.585,0,0,0-.585.585v3.261a.585.585,0,0,0,.585.585h6.695a.585.585,0,0,0,.585-.585v-3.261A.585.585,0,0,0,136.756,238.137Zm-.585,3.261h-5.525v-2.091h5.525V241.4Z" transform="translate(-129.476 -238.137)" fill="#ff4d2c"/>
        </g>
      </g>
      <g id="Group_29" data-name="Group 29" transform="translate(44.127 14.892)">
        <g id="Group_28" data-name="Group 28" transform="translate(0)">
          <circle id="Ellipse_4" data-name="Ellipse 4" cx="0.616" cy="0.616" r="0.616" fill="#ff4d2c"/>
        </g>
      </g>
      <g id="Group_31" data-name="Group 31" transform="translate(44.127 17.145)">
        <g id="Group_30" data-name="Group 30" transform="translate(0)">
          <circle id="Ellipse_5" data-name="Ellipse 5" cx="0.616" cy="0.616" r="0.616" fill="#ff4d2c"/>
        </g>
      </g>
    </g>
  </g>
</svg>
